<svg xmlns="http://www.w3.org/2000/svg" width="48" height="48" fill="none" viewBox="0 0 48 48"><g clip-path="url(#a)"><path fill="#303134" d="m37.338 36.787 3.045-1.622.246-.132.896 1.432-3.274 1.743 3.274 1.747-.896 1.432-3.291-1.755v3.516h-1.752v-3.517l-3.292 1.756-.15-.238-.746-1.194 3.274-1.747-3.274-1.743.895-1.432.248.132 3.045 1.623v-3.515h1.752z"/><path stroke="#70757a" stroke-width="3" d="m30.1 3.5.396.004c7.655.191 13.808 5.983 14 13.152L44.5 17l-.008.44c-.148 4.33-2.474 8.15-5.984 10.521a14.8 14.8 0 0 1-5.15 2.188c-3.345.404-6.656.35-10.184.35H13.143c-5.002-.001-9.11-3.575-9.595-8.13l-.035-.444-.013-.469c0-4.83 4.045-8.788 9.146-9.031l.497-.012c.697 0 1.377.07 2.032.202l1.175.237.49-1.092c2.177-4.85 7.3-8.257 13.26-8.26z"/></g><defs><clipPath id="a"><path fill="#fff" d="M0 0h48v48H0z"/></clipPath></defs></svg>